<svg id="Layer_1" data-name="Layer 1" xmlns="http://www.w3.org/2000/svg" viewBox="0 0 24 24"><defs><style>.cls-1{fill:#f6931f;}.cls-2{fill:#fff;}</style></defs><title>Elisha Icons</title><path class="cls-1" d="M12,10.63H8.53c-.42,0-.55-.13-.52-.55.06-1.09.12-2.19.2-3.28a1.17,1.17,0,0,1,.67-1c.47-.22.95-.44,1.43-.63.32-.12.46,0,.63.26l.82,1.55c.05.11.1.2.25.2s.21-.09.27-.2l.78-1.47c.21-.4.32-.47.74-.31a12.88,12.88,0,0,1,1.32.58,1.23,1.23,0,0,1,.67,1.07c.07,1.11.13,2.21.2,3.32,0,.36-.11.5-.48.5Zm1.77-.7c0-.49-.07-1-.1-1.43a.31.31,0,0,1,.3-.39c.26,0,.39.06.42.31s0,.31,0,.47l.09,1h.71s0,0,0-.05c-.07-1-.14-2.09-.22-3.14a.39.39,0,0,0-.15-.27c-.39-.22-.79-.41-1.18-.61l-.07.08L13,7.09c-.45.83-.28.72-1.21.73a.58.58,0,0,1-.61-.37c-.27-.53-.56-1.06-.85-1.61l-1.07.51A.52.52,0,0,0,9,6.82C9,7.39,8.9,8,8.86,8.53L8.77,9.91h.71l0-.4c0-.35.05-.7.09-1A.36.36,0,0,1,10,8.11a.37.37,0,0,1,.33.41c0,.2,0,.4,0,.61s0,.53,0,.8Z"/><path class="cls-1" d="M4,23.06H.86c-.39,0-.51-.12-.49-.52,0-1,.11-2,.18-3a1,1,0,0,1,.63-.89c.41-.19.82-.37,1.24-.53s.46,0,.61.24c.25.45.48.91.73,1.36a.35.35,0,0,0,.22.15.3.3,0,0,0,.21-.16c.25-.44.48-.89.72-1.34.16-.28.32-.38.61-.27q.72.29,1.41.63a.82.82,0,0,1,.43.69c.07.81.12,1.62.18,2.43,0,.26,0,.53,0,.79s-.12.46-.45.46ZM2.49,18.75l-.91.44a.47.47,0,0,0-.28.45c0,.38-.05.76-.08,1.14s-.06,1-.09,1.54c.12,0,.22,0,.32,0s.23-.05.24-.23c0-.34.05-.69.09-1a.38.38,0,0,1,.38-.37.39.39,0,0,1,.35.4c0,.07,0,.14,0,.21l-.06,1.09H5.51c0-.22,0-.42,0-.62s0-.41,0-.61.1-.42.34-.44.38.11.4.4.08.82.11,1.23h.57c-.06-.93-.11-1.84-.18-2.75a.42.42,0,0,0-.14-.28c-.34-.19-.69-.36-1-.53l-.59,1.09c-.4.73-.23.67-1.14.67a.51.51,0,0,1-.55-.34C3,19.73,2.75,19.26,2.49,18.75Z"/><path class="cls-1" d="M12,23.06H8.86c-.39,0-.52-.15-.5-.53.06-1,.12-1.9.17-2.85a1.13,1.13,0,0,1,.7-1.1l1.18-.5a.42.42,0,0,1,.63.24c.24.46.48.91.73,1.36a.31.31,0,0,0,.22.15c.07,0,.16-.08.2-.15l.72-1.34c.16-.3.32-.39.65-.27s.91.39,1.36.62a.87.87,0,0,1,.45.77c.08,1,.15,2,.23,3.06,0,.39-.11.54-.51.54Zm-2.91-.71h.57l0-.31c0-.32.05-.64.08-1a.41.41,0,0,1,.4-.35.39.39,0,0,1,.33.4c0,.05,0,.1,0,.16,0,.36,0,.73-.05,1.1H13.5a1.91,1.91,0,0,0,0-.24c0-.35,0-.7-.05-1a.34.34,0,0,1,.38-.38c.23,0,.34.13.36.39,0,.41.07.82.1,1.24h.54c0-.31,0-.6-.06-.89,0-.58-.07-1.16-.11-1.73,0-.14,0-.33-.13-.38-.34-.21-.7-.38-1.06-.57-.26.48-.51.9-.71,1.34a.74.74,0,0,1-.73.45A.88.88,0,0,1,11,20a12.22,12.22,0,0,0-.62-1.18l-.93.45a.47.47,0,0,0-.26.44C9.18,20.55,9.12,21.43,9.06,22.35Z"/><path class="cls-1" d="M20,23.06H16.81c-.37,0-.51-.16-.48-.52.07-1,.15-2,.21-3a.94.94,0,0,1,.5-.83,14.89,14.89,0,0,1,1.47-.65.37.37,0,0,1,.5.22l.77,1.42a.28.28,0,0,0,.2.14.26.26,0,0,0,.2-.14c.25-.44.49-.9.73-1.36.16-.29.33-.38.64-.26a13.77,13.77,0,0,1,1.36.61,1.1,1.1,0,0,1,.52,1c.05,1,.09,1.93.14,2.9,0,.36-.13.51-.5.51Zm1.59-4.31c-.21.39-.39.74-.58,1.08-.41.75-.25.69-1.19.69a.52.52,0,0,1-.49-.29c-.22-.44-.46-.87-.69-1.3-.06-.12-.12-.17-.25-.1l-.72.34a.5.5,0,0,0-.32.49c-.05.73-.1,1.47-.14,2.2,0,.14,0,.29,0,.45h.54c0-.4.07-.79.11-1.18s.2-.47.41-.44.35.25.31.54l-.12,1.16h3.11c0-.43-.05-.84-.07-1.25,0-.25.09-.39.31-.42a.34.34,0,0,1,.42.33c0,.13,0,.27,0,.4,0,.28.05.57.07.85h.61c-.06-.91-.11-1.81-.18-2.71a.46.46,0,0,0-.15-.32C22.24,19.08,21.9,18.93,21.54,18.75Z"/><path class="cls-1" d="M4,11.6l.4-.52A.4.4,0,0,1,5,10.94a.4.4,0,0,1,0,.57l-.86,1.17a.37.37,0,0,1-.59.09c-.42-.29-.83-.59-1.23-.89a.38.38,0,0,1-.12-.54.4.4,0,0,1,.55-.05l.43.3c0-.53-.08-1-.06-1.55A8.69,8.69,0,0,1,7.45,2.67c.16-.1.34-.19.51-.28a.38.38,0,0,1,.53.12.36.36,0,0,1-.2.52,8.06,8.06,0,0,0-4.35,8.45S4,11.53,4,11.6Z"/><path class="cls-1" d="M20.78,11.65l.43-.31a.4.4,0,0,1,.57,0,.39.39,0,0,1-.12.55c-.39.3-.79.59-1.19.88a.38.38,0,0,1-.59-.1L19,11.56a.42.42,0,0,1,0-.58.41.41,0,0,1,.57.14l.36.46H20a6.94,6.94,0,0,0,.11-1.93,7.9,7.9,0,0,0-1.87-4.6,7.77,7.77,0,0,0-2.52-2c-.32-.16-.38-.42-.16-.63a.4.4,0,0,1,.52,0,8.49,8.49,0,0,1,3,2.46,8.6,8.6,0,0,1,1.81,5.54,5.46,5.46,0,0,1,0,.58C20.84,11.23,20.81,11.42,20.78,11.65Z"/><path class="cls-1" d="M13.82,2.91a2.77,2.77,0,0,1-1,1.93,1.29,1.29,0,0,1-1.7,0,2.68,2.68,0,0,1-.92-2.58A1.81,1.81,0,0,1,12.17.91,1.88,1.88,0,0,1,13.82,2.91Zm-.74,0a1.16,1.16,0,0,0-1-1.28,1.08,1.08,0,0,0-1.14,1,1.88,1.88,0,0,0,.62,1.62.59.59,0,0,0,.9,0A2,2,0,0,0,13.08,2.91Z"/><path class="cls-1" d="M5.67,16.15a2.49,2.49,0,0,1-.73,1.57,1.24,1.24,0,0,1-1.86,0,2.28,2.28,0,0,1-.71-2.15,1.68,1.68,0,0,1,1.8-1.34A1.79,1.79,0,0,1,5.67,16.15Zm-.74,0A1,1,0,0,0,4.09,15a1,1,0,0,0-1,.88,1.6,1.6,0,0,0,.51,1.33.53.53,0,0,0,.84,0A1.75,1.75,0,0,0,4.93,16.14Z"/><path class="cls-1" d="M12,14.29a1.75,1.75,0,0,1,1.63,2.21,2.46,2.46,0,0,1-.82,1.38,1.21,1.21,0,0,1-1.59,0,2.37,2.37,0,0,1-.76-2.52A1.65,1.65,0,0,1,12,14.29Zm.95,1.85A1,1,0,0,0,12.11,15a1,1,0,0,0-1,.8,1.76,1.76,0,0,0,.65,1.53.49.49,0,0,0,.64-.07A1.73,1.73,0,0,0,12.94,16.14Z"/><path class="cls-1" d="M21.67,16.14a2.44,2.44,0,0,1-.88,1.71,1.22,1.22,0,0,1-1.46.1,2.41,2.41,0,0,1-.94-2.45,1.76,1.76,0,0,1,1.82-1.24A1.79,1.79,0,0,1,21.67,16.14Zm-2.6,0a1.65,1.65,0,0,0,.51,1.1.53.53,0,0,0,.84,0,1.77,1.77,0,0,0,.51-1.05A1,1,0,0,0,20.05,15,1,1,0,0,0,19.07,16.1Z"/><path class="cls-2" d="M2.49,18.75c.26.51.51,1,.73,1.46a.51.51,0,0,0,.55.34c.91,0,.74.06,1.14-.67l.59-1.09c.35.17.7.34,1,.53a.42.42,0,0,1,.14.28c.07.91.12,1.82.18,2.75H6.29c0-.41-.07-.82-.11-1.23s-.14-.41-.4-.4-.35.16-.34.44,0,.4,0,.61,0,.4,0,.62H2.44L2.5,21.3c0-.07,0-.14,0-.21a.39.39,0,0,0-.35-.4.38.38,0,0,0-.38.37c0,.34-.08.69-.09,1,0,.18-.06.26-.24.23s-.2,0-.32,0c0-.53.06-1,.09-1.54s.07-.76.08-1.14a.47.47,0,0,1,.28-.45Z"/><path class="cls-2" d="M9.06,22.35c.06-.92.12-1.8.17-2.68a.47.47,0,0,1,.26-.44l.93-.45A12.22,12.22,0,0,1,11,20a.88.88,0,0,0,1,.61.74.74,0,0,0,.73-.45c.2-.44.45-.86.71-1.34.36.19.72.36,1.06.57.09,0,.12.24.13.38,0,.57.07,1.15.11,1.73,0,.29,0,.58.06.89h-.54c0-.42-.06-.83-.1-1.24,0-.26-.13-.39-.36-.39a.34.34,0,0,0-.38.38c0,.35,0,.7.05,1a1.91,1.91,0,0,1,0,.24H10.41c0-.37,0-.74.05-1.1,0-.06,0-.11,0-.16a.39.39,0,0,0-.33-.4.41.41,0,0,0-.4.35c0,.32-.06.64-.08,1l0,.31Z"/><path class="cls-2" d="M21.54,18.75c.36.18.7.33,1,.52a.46.46,0,0,1,.15.32c.07.9.12,1.8.18,2.71h-.61c0-.28-.05-.57-.07-.85,0-.13,0-.27,0-.4a.34.34,0,0,0-.42-.33c-.22,0-.32.17-.31.42,0,.41.05.82.07,1.25H18.41l.12-1.16c0-.29-.09-.51-.31-.54s-.39.16-.41.44-.07.78-.11,1.18h-.54c0-.16,0-.31,0-.45,0-.73.09-1.47.14-2.2a.5.5,0,0,1,.32-.49l.72-.34c.13-.07.19,0,.25.1.23.43.47.86.69,1.3a.52.52,0,0,0,.49.29c.94,0,.78.06,1.19-.69C21.15,19.49,21.33,19.14,21.54,18.75Z"/><path class="cls-2" d="M13.08,2.91a2,2,0,0,1-.63,1.31.59.59,0,0,1-.9,0,1.88,1.88,0,0,1-.62-1.62,1.08,1.08,0,0,1,1.14-1A1.16,1.16,0,0,1,13.08,2.91Z"/><path class="cls-2" d="M4.93,16.14a1.75,1.75,0,0,1-.51,1.07.53.53,0,0,1-.84,0,1.6,1.6,0,0,1-.51-1.33,1,1,0,0,1,1-.88A1,1,0,0,1,4.93,16.14Z"/><path class="cls-2" d="M12.94,16.14a1.73,1.73,0,0,1-.58,1.15.49.49,0,0,1-.64.07,1.76,1.76,0,0,1-.65-1.53,1,1,0,0,1,1-.8A1,1,0,0,1,12.94,16.14Z"/><path class="cls-2" d="M19.07,16.1a1,1,0,0,1,1-1.11,1,1,0,0,1,.88,1.17,1.77,1.77,0,0,1-.51,1.05.53.53,0,0,1-.84,0A1.65,1.65,0,0,1,19.07,16.1Z"/></svg>