<svg id="Layer_1" data-name="Layer 1" xmlns="http://www.w3.org/2000/svg" viewBox="0 0 24 24"><defs><style>.cls-1{fill:#f6931f;}</style></defs><title>Elisha Icons</title><path class="cls-1" d="M12.7,0c.44.09.88.15,1.31.28a6.61,6.61,0,0,1,3.78,2.92,7.22,7.22,0,0,1,1.08,4c0,.9,0,1.8,0,2.7a1.38,1.38,0,0,1-1.42,1.48h-.72c-.05.3-.1.59-.16.88a5,5,0,0,1-1.15,2.29.23.23,0,0,0,0,.31c.2.41.39.84.6,1.25a.53.53,0,0,0,.27.24l1.94.68a6.41,6.41,0,0,1,3.58,3.43,7,7,0,0,1,.68,3c0,.39-.16.57-.54.57H2.41c-.37,0-.54-.18-.53-.56A6.89,6.89,0,0,1,6.31,17c.6-.2,1.19-.41,1.78-.63a.49.49,0,0,0,.25-.22c.21-.41.4-.84.61-1.25.07-.14,0-.21,0-.33a10.64,10.64,0,0,1-.7-1,.37.37,0,0,0-.39-.24,1.27,1.27,0,0,1-1.34-.84,3.46,3.46,0,0,1-.12-.92c0-.13,0-.2-.15-.26A1.33,1.33,0,0,1,5.46,10a33.27,33.27,0,0,1,.06-3.74A6.68,6.68,0,0,1,9.77.46,10.64,10.64,0,0,1,11.45,0l.18,0ZM9.1,13.24a3.74,3.74,0,0,0,1.33,1.4,3.5,3.5,0,0,0,5.2-2.45,29.23,29.23,0,0,0,.47-3.38c0-.28,0-.57,0-.82-.61-.14-1.2-.24-1.77-.41a7.58,7.58,0,0,1-3.07-1.76A.5.5,0,0,0,11,5.64a2.74,2.74,0,0,0-1.58.63A6,6,0,0,0,8.22,7.7a.38.38,0,0,0,0,.22c0,.6.07,1.21.14,1.82.1.8.23,1.6.34,2.4,0,.14.09.17.21.17h1a.24.24,0,0,0,.24-.15,1.29,1.29,0,0,1,1.22-.79h.92a1.41,1.41,0,0,1,0,2.81h-1a1.09,1.09,0,0,1-1-.56.66.66,0,0,0-.77-.38ZM2.8,23h8.57a23.24,23.24,0,0,1-3-5.76c-.57.19-1.09.39-1.63.56A5.55,5.55,0,0,0,3.18,21.3,5.52,5.52,0,0,0,2.8,23Zm18.71,0a2.07,2.07,0,0,0,0-.25,6.11,6.11,0,0,0-2.35-4.18A12.61,12.61,0,0,0,16,17.25l-.22.59a19.14,19.14,0,0,1-2.15,4.08c-.24.35-.45.73-.68,1.11ZM8.17,6.11l0,0,.06-.06a3.94,3.94,0,0,1,2.57-1.38.88.88,0,0,1,.85.2,6.71,6.71,0,0,0,2.73,1.72A7.49,7.49,0,0,0,16.17,7a3.86,3.86,0,0,0-2.29-3.93,5,5,0,0,0-2.33-.25A3.61,3.61,0,0,0,8.31,5.47,6,6,0,0,0,8.17,6.11Zm9.76.42A5.86,5.86,0,0,0,12.14.93,5.85,5.85,0,0,0,6.4,6.52h.84c0-.11,0-.2,0-.3s0-.2,0-.3a4.66,4.66,0,0,1,2.85-3.75,5.83,5.83,0,0,1,3-.26A4.52,4.52,0,0,1,16.9,5.29c.1.4.15.82.23,1.24Zm-5.77,16,.05,0,1.49-2.37a.23.23,0,0,0,0-.33l-1.4-1.45a1,1,0,0,0-.15-.14c-.51.56-1,1.11-1.49,1.67a.24.24,0,0,0,0,.23l1.48,2.39S12.15,22.56,12.16,22.58Zm2.14-3.46c.31-.78.62-1.56.92-2.34a.2.2,0,0,0,0-.15c-.19-.39-.38-.78-.57-1.2l-1.88,2.09Zm-2.87-1.5-1.86-2c-.13.28-.29.58-.42.89a.5.5,0,0,0,0,.32,10,10,0,0,0,.39,1c.16.41.35.8.54,1.22Zm-4-7.19L7.23,7.49H6.35c0,.82,0,1.63,0,2.43a.45.45,0,0,0,.43.5C7,10.44,7.23,10.43,7.46,10.43Zm9.63-2.94-.22,2.94h.55c.38,0,.56-.19.56-.59V7.66a.88.88,0,0,0,0-.17ZM11.7,13.26v0h.47a.45.45,0,0,0,.11,0,.43.43,0,0,0,.32-.42.39.39,0,0,0-.32-.44,8.24,8.24,0,0,0-1.11,0,.41.41,0,0,0-.34.43.43.43,0,0,0,.34.44A4.53,4.53,0,0,0,11.7,13.26ZM12.86,16H11.35l.79.8Zm-5.6-4.65c-.07.66.06.89.5.91l-.16-.91Z"/><path class="cls-1" d="M20.25,21.32a.5.5,0,0,1-.31.47.41.41,0,0,1-.52-.19c-.22-.32-.43-.64-.66-1a4.54,4.54,0,0,0-.38-.38.47.47,0,0,1-.06-.67.44.44,0,0,1,.66,0,4.72,4.72,0,0,1,1.18,1.51C20.2,21.16,20.22,21.25,20.25,21.32Z"/><path class="cls-1" d="M17.08,19.48a.45.45,0,0,1-.44-.48.45.45,0,1,1,.89,0A.47.47,0,0,1,17.08,19.48Z"/></svg>