<svg id="Layer_1" data-name="Layer 1" xmlns="http://www.w3.org/2000/svg" viewBox="0 0 24 24"><defs><style>.cls-1{fill:#f6931f;}.cls-2{fill:#fff;}</style></defs><title>Elisha Icons</title><path class="cls-1" d="M2.89,7.88c.22,0,.28.18.29.39a7.68,7.68,0,0,0,2.8,6,3.18,3.18,0,0,1,1.06,2c0,.15.08.18.21.18h7.27c.13,0,.17-.05.2-.17a.66.66,0,0,0-.27-.85,3.69,3.69,0,0,1-1.36-4,3.74,3.74,0,0,1,3-2.89,3.59,3.59,0,0,1,2.17.19l.26.11a6.58,6.58,0,0,0-.2-2.35A7.61,7.61,0,0,0,12.17.69a7.3,7.3,0,0,0-6.24,1.7A7.48,7.48,0,0,0,3.54,5.92c-.07.21-.18.33-.41.29A.3.3,0,0,1,3,5.79,8.11,8.11,0,0,1,9.43.14a8.26,8.26,0,0,1,9.5,6.21,8.46,8.46,0,0,1,.21,2.56.36.36,0,0,0,.14.34,3.88,3.88,0,0,1,1.17,4.64.23.23,0,0,0,.06.31c.54.53,1.09,1.07,1.62,1.62a1.24,1.24,0,1,1-1.79,1.73L18.76,16a.25.25,0,0,0-.33-.07,3.79,3.79,0,0,1-2.9.09c-.14,0-.19,0-.21.12s0,.31-.05.47-.11.39-.4.39H7c-.4,0-.45,0-.48-.44a2.75,2.75,0,0,0-1-1.94A8.26,8.26,0,0,1,2.72,9.65a7.29,7.29,0,0,1-.12-1.4A.32.32,0,0,1,2.89,7.88Z"/><path class="cls-1" d="M10.88,20.65c-.77,0-1.53,0-2.3,0A1.52,1.52,0,0,1,7.1,19.31a1.54,1.54,0,0,1,1.05-1.64,1.45,1.45,0,0,1,.47-.08h4.53a1.52,1.52,0,0,1,.46,3,1.91,1.91,0,0,1-.54.08Z"/><path class="cls-1" d="M10.85,24H9.42A1.53,1.53,0,0,1,9.36,21q1.52,0,3,0a1.51,1.51,0,0,1,1.48,1.54A1.54,1.54,0,0,1,12.33,24Z"/><path class="cls-2" d="M3.08,6.54c.36.19.18.49.15.76a.28.28,0,0,1-.34.25.32.32,0,0,1-.21-.42,2.17,2.17,0,0,0,0-.25A.33.33,0,0,1,3.08,6.54Z"/><path class="cls-2" d="M16.87,15.65a3.33,3.33,0,1,1,0-6.66,3.3,3.3,0,0,1,3.31,3.33A3.34,3.34,0,0,1,16.87,15.65Z"/><path class="cls-2" d="M21.23,17.35a.71.71,0,0,1-.51-.23c-.49-.49-1-1-1.47-1.46-.11-.11-.1-.17,0-.26a3.19,3.19,0,0,0,.71-.71c.07-.1.12-.1.21,0l1.52,1.53a.66.66,0,0,1-.48,1.14Z"/><path class="cls-2" d="M10.86,20.07H8.69a1,1,0,1,1,0-1.9c1.46,0,2.93,0,4.39,0a1,1,0,1,1,0,1.9Z"/><path class="cls-2" d="M10.88,23.42H9.47a.94.94,0,0,1-1-.93,1,1,0,0,1,1-1h2.87a1,1,0,0,1,1,.95,1,1,0,0,1-1,1Z"/></svg>